<?xml version="1.0" encoding="UTF-8" standalone="no"?>
<!DOCTYPE svg PUBLIC "-//W3C//DTD SVG 1.1//EN" "http://www.w3.org/Graphics/SVG/1.1/DTD/svg11.dtd">
<svg width="100%" height="100%" viewBox="0 0 110 135" version="1.1" xmlns="http://www.w3.org/2000/svg" xmlns:xlink="http://www.w3.org/1999/xlink" xml:space="preserve" xmlns:serif="http://www.serif.com/" style="fill-rule:evenodd;clip-rule:evenodd;stroke-linejoin:round;stroke-miterlimit:2;">
    <g transform="matrix(1,0,0,1,5,10)">
        <path d="M25.805,4.559L43.41,14.723L43.41,36.149L24.851,46.868L6.281,36.145L6.281,14.731L24.851,4.008L25.805,4.559ZM57.223,8.547L93.875,8.547L93.875,45.199L57.223,45.199L57.223,8.547ZM24.848,55.735C42.715,55.735 51.719,77.438 39.075,90.083C26.431,102.728 4.723,93.727 4.723,75.856C4.723,64.747 13.735,55.735 24.848,55.735ZM74.207,58.094L72.551,55.223L49.824,94.582L95.273,94.582L74.207,58.094Z"/>
    </g>
</svg>
